#
# Object file
# Created by SpaceClaim
#

mtllib ring.mtl

# Design2\Solid
v 9.21290376865476 5.31907247085094 2.53341253682232
v -9.45966395493603E-15 10.6381449417019 2.53341253682231
v 1.73472347597681E-15 10.8310910499974 2.11
v 9.38 5.41554552499869 2.11
v -9.45966395493603E-15 10.6381449417019 2.53341253682231
v -9.21290376865476 5.31907247085094 2.53341253682232
v -9.38 5.41554552499869 2.11
v 1.73472347597681E-15 10.8310910499974 2.11
v -9.21290376865476 5.31907247085094 2.53341253682232
v -9.21290376865476 -5.31907247085094 2.53341253682232
v -9.38 -5.41554552499869 2.11
v -9.38 5.41554552499869 2.11
v -9.21290376865476 -5.31907247085094 2.53341253682232
v 2.16790036607439E-15 -10.6381449417019 2.53341253682232
v -6.07153216591882E-15 -10.8310910499974 2.11
v -9.38 -5.41554552499869 2.11
v 2.16790036607439E-15 -10.6381449417019 2.53341253682232
v 9.21290376865476 -5.31907247085094 2.53341253682231
v 9.38 -5.4155455249987 2.11
v -6.07153216591882E-15 -10.8310910499974 2.11
v 9.21290376865476 -5.31907247085094 2.53341253682231
v 9.21290376865476 5.31907247085094 2.53341253682232
v 9.38 5.41554552499869 2.11
v 9.38 -5.4155455249987 2.11
v -9.21290376865476 -5.31907247085094 2.53341253682232
v -9.21290376865476 5.31907247085094 2.53341253682232
v -9.21290376865476 5.31907247085094 3.64658746317768
v -9.21290376865476 -5.31907247085095 3.64658746317768
v -9.21290376865476 5.31907247085094 2.53341253682232
v -9.45966395493603E-15 10.6381449417019 2.53341253682231
v -7.50860402335874E-15 10.6381449417019 3.64658746317768
v -9.21290376865476 5.31907247085094 3.64658746317768
v -9.45966395493603E-15 10.6381449417019 2.53341253682231
v 9.21290376865476 5.31907247085094 2.53341253682232
v 9.21290376865476 5.31907247085095 3.64658746317768
v -7.50860402335874E-15 10.6381449417019 3.64658746317768
v -9.21290376865476 5.31907247085094 3.64658746317768
v -7.50860402335874E-15 10.6381449417019 3.64658746317768
v 2.60208521396521E-15 10.8310910499974 4.07
v -9.38 5.41554552499869 4.07
v 9.21290376865476 5.31907247085095 3.64658746317768
v 9.21290376865477 -5.31907247085094 3.64658746317768
v 9.38 -5.4155455249987 4.07
v 9.38 5.41554552499869 4.07
v 9.21290376865477 -5.31907247085094 3.64658746317768
v 2.67035182864217E-15 -10.6381449417019 3.64658746317767
v -8.67361737988404E-15 -10.8310910499974 4.07
v 9.38 -5.4155455249987 4.07
v -7.50860402335874E-15 10.6381449417019 3.64658746317768
v 9.21290376865476 5.31907247085095 3.64658746317768
v 9.38 5.41554552499869 4.07
v 2.60208521396521E-15 10.8310910499974 4.07
v 2.67035182864217E-15 -10.6381449417019 3.64658746317767
v -9.21290376865476 -5.31907247085095 3.64658746317768
v -9.38 -5.41554552499869 4.07
v -8.67361737988404E-15 -10.8310910499974 4.07
v -9.21290376865476 -5.31907247085095 3.64658746317768
v -9.21290376865476 5.31907247085094 3.64658746317768
v -9.38 5.41554552499869 4.07
v -9.38 -5.41554552499869 4.07
v 2.16790036607439E-15 -10.6381449417019 2.53341253682232
v -9.21290376865476 -5.31907247085094 2.53341253682232
v -9.21290376865476 -5.31907247085095 3.64658746317768
v 2.67035182864217E-15 -10.6381449417019 3.64658746317767
v 9.21290376865476 -5.31907247085094 2.53341253682231
v 2.16790036607439E-15 -10.6381449417019 2.53341253682232
v 2.67035182864217E-15 -10.6381449417019 3.64658746317767
v 9.21290376865477 -5.31907247085094 3.64658746317768
v 9.21290376865476 5.31907247085094 2.53341253682232
v 9.21290376865476 -5.31907247085094 2.53341253682231
v 9.21290376865477 -5.31907247085094 3.64658746317768
v 9.21290376865476 5.31907247085095 3.64658746317768
v 10 5.77350269189626 3.45
v 2.56395024851142E-15 11.5470053837925 3.45
v 2.60208521396521E-15 10.8310910499974 4.07
v 9.38 5.41554552499869 4.07
v -10 5.77350269189626 3.45
v -10 -5.77350269189626 3.45
v -9.38 -5.41554552499869 4.07
v -9.38 5.41554552499869 4.07
v -10 -5.77350269189626 3.45
v -7.0508631834064E-15 -11.5470053837925 3.45
v -8.67361737988404E-15 -10.8310910499974 4.07
v -9.38 -5.41554552499869 4.07
v -7.0508631834064E-15 -11.5470053837925 3.45
v 9.99999999999999 -5.77350269189626 3.45
v 9.38 -5.4155455249987 4.07
v -8.67361737988404E-15 -10.8310910499974 4.07
v 9.99999999999999 -5.77350269189626 3.45
v 10 5.77350269189626 3.45
v 9.38 5.41554552499869 4.07
v 9.38 -5.4155455249987 4.07
v 2.56395024851142E-15 11.5470053837925 3.45
v -10 5.77350269189626 3.45
v -9.38 5.41554552499869 4.07
v 2.60208521396521E-15 10.8310910499974 4.07
v 9.99999999999999 -5.77350269189626 3.45
v -7.0508631834064E-15 -11.5470053837925 3.45
v -7.0508631834064E-15 -11.5470053837925 2.73
v 9.99999999999999 -5.77350269189626 2.73
v -7.0508631834064E-15 -11.5470053837925 3.45
v -10 -5.77350269189626 3.45
v -10 -5.77350269189626 2.73
v -7.0508631834064E-15 -11.5470053837925 2.73
v -10 -5.77350269189626 3.45
v -10 5.77350269189626 3.45
v -10 5.77350269189626 2.73
v -10 -5.77350269189626 2.73
v 10 5.77350269189626 2.73
v 9.99999999999999 -5.77350269189626 2.73
v 9.38 -5.4155455249987 2.11
v 9.38 5.41554552499869 2.11
v -7.0508631834064E-15 -11.5470053837925 2.73
v -10 -5.77350269189626 2.73
v -9.38 -5.41554552499869 2.11
v -6.07153216591882E-15 -10.8310910499974 2.11
v -10 -5.77350269189626 2.73
v -10 5.77350269189626 2.73
v -9.38 5.41554552499869 2.11
v -9.38 -5.41554552499869 2.11
v -10 5.77350269189626 2.73
v 2.56395024851142E-15 11.5470053837925 2.73
v 1.73472347597681E-15 10.8310910499974 2.11
v -9.38 5.41554552499869 2.11
v 2.56395024851142E-15 11.5470053837925 2.73
v 10 5.77350269189626 2.73
v 9.38 5.41554552499869 2.11
v 1.73472347597681E-15 10.8310910499974 2.11
v 9.99999999999999 -5.77350269189626 2.73
v -7.0508631834064E-15 -11.5470053837925 2.73
v -6.07153216591882E-15 -10.8310910499974 2.11
v 9.38 -5.4155455249987 2.11
v -10 5.77350269189626 3.45
v 2.56395024851142E-15 11.5470053837925 3.45
v 2.56395024851142E-15 11.5470053837925 2.73
v -10 5.77350269189626 2.73
v 2.56395024851142E-15 11.5470053837925 3.45
v 10 5.77350269189626 3.45
v 10 5.77350269189626 2.73
v 2.56395024851142E-15 11.5470053837925 2.73
v 10 5.77350269189626 3.45
v 9.99999999999999 -5.77350269189626 3.45
v 9.99999999999999 -5.77350269189626 2.73
v 10 5.77350269189626 2.73
vn -0.465092725894952 -0.805564231480762 -0.367089941674261
vn -0.465092725894955 -0.805564231480765 -0.367089941674252
vn -0.465092725894949 -0.805564231480757 -0.367089941674276
vn -0.46509272589495 -0.805564231480759 -0.367089941674272
vn 0.465092725894954 -0.805564231480765 -0.367089941674253
vn 0.46509272589495 -0.805564231480763 -0.367089941674261
vn 0.465092725894949 -0.805564231480757 -0.367089941674276
vn 0.465092725894951 -0.805564231480761 -0.367089941674264
vn 0.930185451789903 -8.97900258607623E-17 -0.367089941674263
vn 0.930185451789901 -8.97900258607639E-17 -0.367089941674269
vn 0.930185451789901 0 -0.367089941674268
vn 0.930185451789903 0 -0.367089941674264
vn 0.465092725894952 0.80556423148076 -0.367089941674265
vn 0.465092725894945 0.805564231480753 -0.36708994167429
vn 0.465092725894951 0.80556423148076 -0.367089941674267
vn 0.465092725894953 0.805564231480761 -0.367089941674262
vn -0.465092725894953 0.805564231480762 -0.36708994167426
vn -0.465092725894948 0.805564231480751 -0.36708994167429
vn -0.46509272589495 0.805564231480758 -0.367089941674272
vn -0.465092725894949 0.80556423148076 -0.36708994167427
vn -0.930185451789915 -7.30511631974187E-16 -0.367089941674234
vn -0.93018545178991 2.69370077582275E-16 -0.367089941674246
vn -0.9301854517899 8.93879222019331E-16 -0.36708994167427
vn -0.930185451789905 8.93879222019334E-16 -0.367089941674258
vn 1 3.71726459137887E-16 0
vn 1 3.71726459137887E-16 0
vn 1 3.71726459137887E-16 0
vn 1 3.71726459137887E-16 0
vn 0.500000000000001 -0.866025403784438 0
vn 0.500000000000001 -0.866025403784438 0
vn 0.500000000000001 -0.866025403784438 0
vn 0.500000000000001 -0.866025403784438 0
vn -0.5 -0.866025403784439 0
vn -0.5 -0.866025403784439 0
vn -0.5 -0.866025403784439 0
vn -0.5 -0.866025403784439 0
vn 0.46509272589495 -0.805564231480761 0.367089941674266
vn 0.465092725894951 -0.80556423148076 0.367089941674266
vn 0.465092725894951 -0.805564231480762 0.367089941674262
vn 0.465092725894949 -0.805564231480758 0.367089941674274
vn -0.930185451789901 1.79580051721528E-16 0.367089941674269
vn -0.930185451789907 1.7958005172152E-16 0.367089941674254
vn -0.930185451789906 8.93879222019335E-16 0.367089941674257
vn -0.930185451789901 8.93879222019333E-16 0.367089941674269
vn -0.465092725894949 0.80556423148076 0.36708994167427
vn -0.465092725894947 0.805564231480757 0.367089941674279
vn -0.465092725894949 0.805564231480756 0.367089941674279
vn -0.465092725894949 0.805564231480759 0.367089941674271
vn -0.465092725894948 -0.805564231480757 0.367089941674277
vn -0.465092725894948 -0.805564231480756 0.36708994167428
vn -0.46509272589495 -0.805564231480758 0.367089941674272
vn -0.465092725894949 -0.805564231480757 0.367089941674277
vn 0.465092725894952 0.805564231480761 0.367089941674264
vn 0.465092725894952 0.805564231480761 0.367089941674264
vn 0.46509272589495 0.805564231480759 0.367089941674271
vn 0.46509272589495 0.805564231480758 0.367089941674273
vn 0.930185451789905 -8.97900258607614E-17 0.367089941674259
vn 0.930185451789903 -2.69370077582288E-16 0.367089941674264
vn 0.930185451789902 0 0.367089941674267
vn 0.930185451789898 0 0.367089941674277
vn 0.5 0.866025403784439 0
vn 0.5 0.866025403784439 0
vn 0.5 0.866025403784439 0
vn 0.5 0.866025403784439 0
vn -0.5 0.866025403784439 0
vn -0.5 0.866025403784439 0
vn -0.5 0.866025403784439 0
vn -0.5 0.866025403784439 0
vn -1 -1.85863229568944E-16 0
vn -1 -1.85863229568944E-16 0
vn -1 -1.85863229568944E-16 0
vn -1 -1.85863229568944E-16 0
vn 0.353553390593274 0.612372435695795 0.707106781186547
vn 0.353553390593274 0.612372435695795 0.707106781186547
vn 0.353553390593274 0.612372435695795 0.707106781186547
vn 0.353553390593274 0.612372435695795 0.707106781186547
vn -0.707106781186547 2.12459368048518E-16 0.707106781186548
vn -0.707106781186547 2.12459368048518E-16 0.707106781186548
vn -0.707106781186547 2.12459368048518E-16 0.707106781186548
vn -0.707106781186547 2.12459368048518E-16 0.707106781186548
vn -0.353553390593274 -0.612372435695794 0.707106781186547
vn -0.353553390593274 -0.612372435695794 0.707106781186547
vn -0.353553390593274 -0.612372435695794 0.707106781186547
vn -0.353553390593274 -0.612372435695794 0.707106781186547
vn 0.353553390593273 -0.612372435695794 0.707106781186548
vn 0.353553390593273 -0.612372435695794 0.707106781186548
vn 0.353553390593273 -0.612372435695794 0.707106781186548
vn 0.353553390593273 -0.612372435695794 0.707106781186548
vn 0.707106781186547 -3.18689052072777E-16 0.707106781186548
vn 0.707106781186547 -3.18689052072777E-16 0.707106781186548
vn 0.707106781186547 -3.18689052072777E-16 0.707106781186548
vn 0.707106781186547 -3.18689052072777E-16 0.707106781186548
vn -0.353553390593273 0.612372435695794 0.707106781186548
vn -0.353553390593273 0.612372435695794 0.707106781186548
vn -0.353553390593273 0.612372435695794 0.707106781186548
vn -0.353553390593273 0.612372435695794 0.707106781186548
vn 0.499999999999999 -0.866025403784439 0
vn 0.499999999999999 -0.866025403784439 0
vn 0.499999999999999 -0.866025403784439 0
vn 0.499999999999999 -0.866025403784439 0
vn -0.5 -0.866025403784438 0
vn -0.5 -0.866025403784438 0
vn -0.5 -0.866025403784438 0
vn -0.5 -0.866025403784438 0
vn -1 3.00462919747432E-16 0
vn -1 3.00462919747432E-16 0
vn -1 3.00462919747432E-16 0
vn -1 3.00462919747432E-16 0
vn 0.707106781186547 -3.18689052072777E-16 -0.707106781186548
vn 0.707106781186547 -3.18689052072777E-16 -0.707106781186548
vn 0.707106781186547 -3.18689052072777E-16 -0.707106781186548
vn 0.707106781186547 -3.18689052072777E-16 -0.707106781186548
vn -0.353553390593275 -0.612372435695795 -0.707106781186546
vn -0.353553390593275 -0.612372435695795 -0.707106781186546
vn -0.353553390593275 -0.612372435695795 -0.707106781186546
vn -0.353553390593275 -0.612372435695795 -0.707106781186546
vn -0.707106781186547 2.12459368048518E-16 -0.707106781186548
vn -0.707106781186547 2.12459368048518E-16 -0.707106781186548
vn -0.707106781186547 2.12459368048518E-16 -0.707106781186548
vn -0.707106781186547 2.12459368048518E-16 -0.707106781186548
vn -0.353553390593273 0.612372435695794 -0.707106781186549
vn -0.353553390593273 0.612372435695794 -0.707106781186549
vn -0.353553390593273 0.612372435695794 -0.707106781186549
vn -0.353553390593273 0.612372435695794 -0.707106781186549
vn 0.353553390593274 0.612372435695795 -0.707106781186547
vn 0.353553390593274 0.612372435695795 -0.707106781186547
vn 0.353553390593274 0.612372435695795 -0.707106781186547
vn 0.353553390593274 0.612372435695795 -0.707106781186547
vn 0.353553390593274 -0.612372435695796 -0.707106781186546
vn 0.353553390593274 -0.612372435695796 -0.707106781186546
vn 0.353553390593274 -0.612372435695796 -0.707106781186546
vn 0.353553390593274 -0.612372435695796 -0.707106781186546
vn -0.5 0.866025403784439 0
vn -0.5 0.866025403784439 0
vn -0.5 0.866025403784439 0
vn -0.5 0.866025403784439 0
vn 0.5 0.866025403784439 0
vn 0.5 0.866025403784439 0
vn 0.5 0.866025403784439 0
vn 0.5 0.866025403784439 0
vn 1 -4.50694379621148E-16 0
vn 1 -4.50694379621148E-16 0
vn 1 -4.50694379621148E-16 0
vn 1 -4.50694379621148E-16 0
vt 0.000455191527676096 0.011581553746196
vt 0.000455191527676087 0.000943408804494108
vt 0 0.000846935750346376
vt 0 0.0116780268003437
vt 0.00045519152767609 0.0116297902732699
vt 0.000455191527676083 0.000991645331567972
vt 0 0.000895172277420232
vt 1.93623892153632E-18 0.0117262633274176
vt 0.00045519152767609 0.0113546179958496
vt 0.000455191527676089 0.000716473054147747
vt 0 0.000620000000000002
vt 0 0.0114510910499974
vt 0.000455191527676101 0.011581553746196
vt 0.000455191527676093 0.000943408804494114
vt 0 0.00084693575034637
vt 1.04020317467534E-18 0.0116780268003438
vt 0.000455191527676096 0.0116297902732699
vt 0.00045519152767608 0.000991645331567976
vt 0 0.000895172277420239
vt 0 0.0117262633274176
vt 0.000455191527676087 0.0113546179958496
vt 0.000455191527676083 0.000716473054147748
vt 0 0.000620000000000003
vt 1.21087594735033E-18 0.0114510910499974
vt -0.00253341253682232 -0.00531907247085094
vt -0.00253341253682232 0.00531907247085094
vt -0.00364658746317768 0.00531907247085094
vt -0.00364658746317768 -0.00531907247085094
vt -0.00253341253682232 -0.00531907247085094
vt -0.00253341253682231 0.00531907247085094
vt -0.00364658746317768 0.00531907247085094
vt -0.00364658746317768 -0.00531907247085094
vt -0.00253341253682231 -0.00531907247085095
vt -0.00253341253682232 0.00531907247085095
vt -0.00364658746317768 0.00531907247085095
vt -0.00364658746317768 -0.00531907247085095
vt 0.000455191527676089 0.011581553746196
vt 0.000455191527676089 0.000943408804494109
vt 0 0.000846935750346355
vt 0 0.0116780268003437
vt 0.000455191527676087 0.0113546179958496
vt 0.000455191527676087 0.00071647305414775
vt 0 0.000619999999999997
vt 3.05972253145899E-33 0.0114510910499974
vt 0.000455191527676092 0.011581553746196
vt 0.000455191527676092 0.000943408804494106
vt 0 0.000846935750346356
vt 1.35829184854283E-18 0.0116780268003437
vt 0.000455191527676096 0.0116297902732699
vt 0.000455191527676096 0.000991645331567969
vt 0 0.000895172277420223
vt 0 0.0117262633274176
vt 0.000455191527676096 0.0116297902732699
vt 0.000455191527676096 0.000991645331567972
vt 0 0.000895172277420225
vt 0 0.0117262633274176
vt 0.000455191527676089 0.0113546179958496
vt 0.000455191527676089 0.000716473054147744
vt 0 0.000619999999999997
vt 0 0.0114510910499974
vt 0.00253341253682232 0.00531907247085094
vt 0.00253341253682232 -0.00531907247085094
vt 0.00364658746317768 -0.00531907247085094
vt 0.00364658746317767 0.00531907247085095
vt 0.00253341253682231 0.00531907247085095
vt 0.00253341253682232 -0.00531907247085094
vt 0.00364658746317767 -0.00531907247085094
vt 0.00364658746317768 0.00531907247085095
vt 0.00253341253682232 0.00531907247085094
vt 0.00253341253682231 -0.00531907247085094
vt 0.00364658746317768 -0.00531907247085094
vt 0.00364658746317768 0.00531907247085095
vt 0.00474940838420955 -0.00331189573104791
vt -0.0041948635257896 0.00399107170235431
vt -0.00447213595499958 0.00308550374061244
vt 0.00391759109657963 -0.00376467971191884
vt -0.000438406204335659 0.00577350269189626
vt -0.000438406204335662 -0.00577350269189626
vt 0.000438406204335658 -0.00541554552499869
vt 0.00043840620433566 0.00541554552499869
vt -0.00474940838420955 0.0033118957310479
vt 0.0041948635257896 -0.00399107170235431
vt 0.00447213595499957 -0.00308550374061244
vt -0.00391759109657963 0.00376467971191884
vt -0.00419486352578961 -0.00399107170235431
vt 0.00474940838420956 0.00331189573104791
vt 0.00391759109657963 0.00376467971191884
vt -0.00447213595499959 -0.00308550374061243
vt 0.000438406204335658 -0.00577350269189625
vt 0.000438406204335662 0.00577350269189626
vt -0.000438406204335658 0.00541554552499869
vt -0.00043840620433566 -0.00541554552499869
vt 0.00419486352578961 0.00399107170235431
vt -0.00474940838420955 -0.0033118957310479
vt -0.00391759109657963 -0.00376467971191884
vt 0.00447213595499958 0.00308550374061243
vt 0.00577350269189626 0.00345
vt -0.00577350269189626 0.00345
vt -0.00577350269189626 0.00273
vt 0.00577350269189626 0.00273
vt 0.00577350269189625 0.00345
vt -0.00577350269189625 0.00345
vt -0.00577350269189625 0.00273
vt 0.00577350269189625 0.00273
vt 0.00577350269189626 0.00345
vt -0.00577350269189626 0.00345
vt -0.00577350269189626 0.00273
vt 0.00577350269189626 0.00273
vt -0.000438406204335662 0.00577350269189626
vt -0.000438406204335658 -0.00577350269189625
vt 0.00043840620433566 -0.0054155455249987
vt 0.000438406204335658 0.00541554552499869
vt -0.0041948635257896 -0.00399107170235431
vt 0.00474940838420955 0.00331189573104791
vt 0.00391759109657962 0.00376467971191884
vt -0.00447213595499957 -0.00308550374061244
vt 0.000438406204335662 -0.00577350269189626
vt 0.000438406204335659 0.00577350269189626
vt -0.00043840620433566 0.00541554552499869
vt -0.000438406204335658 -0.00541554552499869
vt 0.00474940838420956 -0.0033118957310479
vt -0.00419486352578961 0.00399107170235431
vt -0.00447213595499958 0.00308550374061243
vt 0.00391759109657963 -0.00376467971191884
vt 0.0041948635257896 0.00399107170235431
vt -0.00474940838420955 -0.00331189573104791
vt -0.00391759109657963 -0.00376467971191884
vt 0.00447213595499958 0.00308550374061244
vt -0.00474940838420955 0.00331189573104791
vt 0.0041948635257896 -0.00399107170235431
vt 0.00447213595499958 -0.00308550374061244
vt -0.00391759109657963 0.00376467971191884
vt 0.00577350269189626 0.00345
vt -0.00577350269189626 0.00345
vt -0.00577350269189626 0.00273
vt 0.00577350269189626 0.00273
vt 0.00577350269189626 0.00345
vt -0.00577350269189626 0.00345
vt -0.00577350269189626 0.00273
vt 0.00577350269189626 0.00273
vt 0.00577350269189626 0.00345
vt -0.00577350269189626 0.00345
vt -0.00577350269189626 0.00273
vt 0.00577350269189626 0.00273

o Design2\Solid
g Design2\Solid
s off

usemtl c_0

# face 0
f 2/2/2 3/3/3 1/1/1
f 1/1/1 3/3/3 4/4/4

# face 1
f 6/6/6 7/7/7 5/5/5
f 5/5/5 7/7/7 8/8/8

# face 2
f 10/10/10 11/11/11 9/9/9
f 9/9/9 11/11/11 12/12/12

# face 3
f 14/14/14 15/15/15 13/13/13
f 13/13/13 15/15/15 16/16/16

# face 4
f 18/18/18 19/19/19 17/17/17
f 17/17/17 19/19/19 20/20/20

# face 5
f 22/22/22 23/23/23 21/21/21
f 21/21/21 23/23/23 24/24/24

# face 6
f 26/26/26 27/27/27 25/25/25
f 25/25/25 27/27/27 28/28/28

# face 7
f 30/30/30 31/31/31 29/29/29
f 29/29/29 31/31/31 32/32/32

# face 8
f 34/34/34 35/35/35 33/33/33
f 33/33/33 35/35/35 36/36/36

# face 9
f 38/38/38 39/39/39 37/37/37
f 37/37/37 39/39/39 40/40/40

# face 10
f 42/42/42 43/43/43 41/41/41
f 41/41/41 43/43/43 44/44/44

# face 11
f 46/46/46 47/47/47 45/45/45
f 45/45/45 47/47/47 48/48/48

# face 12
f 50/50/50 51/51/51 49/49/49
f 49/49/49 51/51/51 52/52/52

# face 13
f 54/54/54 55/55/55 53/53/53
f 53/53/53 55/55/55 56/56/56

# face 14
f 58/58/58 59/59/59 57/57/57
f 57/57/57 59/59/59 60/60/60

# face 15
f 62/62/62 63/63/63 61/61/61
f 61/61/61 63/63/63 64/64/64

# face 16
f 66/66/66 67/67/67 65/65/65
f 65/65/65 67/67/67 68/68/68

# face 17
f 70/70/70 71/71/71 69/69/69
f 69/69/69 71/71/71 72/72/72

# face 18
f 74/74/74 75/75/75 73/73/73
f 73/73/73 75/75/75 76/76/76

# face 19
f 77/77/77 78/78/78 80/80/80
f 80/80/80 78/78/78 79/79/79

# face 20
f 82/82/82 83/83/83 81/81/81
f 81/81/81 83/83/83 84/84/84

# face 21
f 85/85/85 86/86/86 88/88/88
f 88/88/88 86/86/86 87/87/87

# face 22
f 90/90/90 91/91/91 89/89/89
f 89/89/89 91/91/91 92/92/92

# face 23
f 93/93/93 94/94/94 96/96/96
f 96/96/96 94/94/94 95/95/95

# face 24
f 97/97/97 98/98/98 100/100/100
f 100/100/100 98/98/98 99/99/99

# face 25
f 101/101/101 102/102/102 104/104/104
f 104/104/104 102/102/102 103/103/103

# face 26
f 105/105/105 106/106/106 108/108/108
f 108/108/108 106/106/106 107/107/107

# face 27
f 109/109/109 110/110/110 112/112/112
f 112/112/112 110/110/110 111/111/111

# face 28
f 113/113/113 114/114/114 116/116/116
f 116/116/116 114/114/114 115/115/115

# face 29
f 118/118/118 119/119/119 117/117/117
f 117/117/117 119/119/119 120/120/120

# face 30
f 122/122/122 123/123/123 121/121/121
f 121/121/121 123/123/123 124/124/124

# face 31
f 125/125/125 126/126/126 128/128/128
f 128/128/128 126/126/126 127/127/127

# face 32
f 130/130/130 131/131/131 129/129/129
f 129/129/129 131/131/131 132/132/132

# face 33
f 133/133/133 134/134/134 136/136/136
f 136/136/136 134/134/134 135/135/135

# face 34
f 137/137/137 138/138/138 140/140/140
f 140/140/140 138/138/138 139/139/139

# face 35
f 141/141/141 142/142/142 144/144/144
f 144/144/144 142/142/142 143/143/143
